<?xml version="1.0" standalone="no"?>
<!DOCTYPE svg PUBLIC "-//W3C//DTD SVG 20010904//EN"
 "http://www.w3.org/TR/2001/REC-SVG-20010904/DTD/svg10.dtd">
<svg version="1.0" xmlns="http://www.w3.org/2000/svg"
 width="512.000000pt" height="512.000000pt" viewBox="0 0 512.000000 512.000000"
 preserveAspectRatio="xMidYMid meet">

<g transform="translate(0.000000,512.000000) scale(0.100000,-0.100000)"
fill="#000000" stroke="none">
<path d="M2096 5104 c-285 -64 -502 -270 -573 -545 l-17 -69 -94 0 c-258 0
-489 -125 -627 -339 -76 -119 -111 -227 -122 -382 l-6 -89 -67 -54 c-118 -95
-212 -244 -251 -395 -22 -84 -26 -241 -10 -327 25 -131 98 -270 196 -374 l61
-65 12 -107 c13 -123 45 -224 102 -319 181 -305 566 -445 888 -323 37 14 75
28 84 31 11 3 51 -16 105 -52 133 -86 244 -138 307 -143 l53 -4 13 -247 c7
-135 10 -334 7 -441 -5 -215 -19 -306 -102 -660 -25 -106 -45 -194 -45 -196 0
-2 203 -4 450 -4 248 0 450 2 450 5 0 3 -15 74 -34 158 -91 401 -112 557 -96
724 11 124 36 309 48 355 4 15 73 96 161 188 l153 161 52 -29 c124 -69 230
-96 381 -96 84 0 129 5 188 22 276 78 488 304 539 576 l13 68 65 33 c265 134
420 383 421 675 0 162 -54 330 -140 440 -15 19 -30 40 -34 46 -4 7 3 47 14 90
45 171 22 373 -61 532 -103 199 -295 346 -507 390 l-82 16 -22 51 c-68 157
-229 312 -397 380 -80 32 -198 55 -286 55 -119 0 -197 -20 -373 -96 -6 -3 -26
16 -44 43 -103 150 -261 263 -434 308 -89 24 -255 28 -339 9z m739 -3040 c13
-91 77 -227 146 -316 l30 -37 -63 -51 c-75 -61 -192 -121 -238 -122 -83 -3
-90 120 -22 406 l28 119 45 23 c24 13 49 23 55 24 7 0 15 -21 19 -46z m-526
-29 c40 -8 110 -15 157 -15 82 0 84 -1 79 -22 -3 -13 -10 -45 -15 -73 -30
-142 -79 -235 -124 -235 -30 0 -89 58 -141 139 -41 64 -145 252 -145 263 0 3
26 -5 59 -18 32 -13 91 -31 130 -39z m-221 -116 l72 -151 -53 4 c-49 4 -174
56 -221 92 -17 14 -16 18 29 72 25 32 56 75 68 96 12 21 25 38 28 38 3 0 38
-68 77 -151z"/>
</g>
</svg>
